<svg width="11" height="11" viewBox="0 0 11 11" fill="none" xmlns="http://www.w3.org/2000/svg">
  <path d="M8.24267 4.76801C8.66818 4.92666 9.04683 5.19007 9.34358 5.53385C9.64034 5.87764 9.84563 6.29072 9.94046 6.73487C10.0353 7.17903 10.0166 7.63994 9.88613 8.07496C9.75565 8.50999 9.5176 8.90508 9.19399 9.22371C8.87038 9.54235 8.47166 9.77423 8.0347 9.89791C7.59773 10.0216 7.13664 10.0331 6.69406 9.93133C6.25148 9.82957 5.8417 9.61784 5.50262 9.31573C5.16354 9.01361 4.9061 8.63086 4.75412 8.20288M3.25067 2.80072H3.70081V4.60144M7.62148 6.34814L7.93657 6.66777L6.66719 7.93728M6.40161 3.70108C6.40161 5.19285 5.19242 6.40216 3.70081 6.40216C2.20919 6.40216 1 5.19285 1 3.70108C1 2.20931 2.20919 1 3.70081 1C5.19242 1 6.40161 2.20931 6.40161 3.70108Z" stroke="#E7E4DD" stroke-width="0.779167" stroke-linecap="round" stroke-linejoin="round" />
</svg>