<svg width="35" height="35" viewBox="0 0 35 35" fill="none" xmlns="http://www.w3.org/2000/svg">
  <path d="M4.375 8.74967V24.4997C4.375 26.1332 4.375 26.9493 4.6929 27.5732C4.97253 28.1221 5.4184 28.5691 5.9672 28.8488C6.5905 29.1663 7.40687 29.1663 9.03716 29.1663H25.9628C27.5931 29.1663 28.4083 29.1663 29.0316 28.8488C29.5804 28.5691 30.0278 28.1223 30.3074 27.5735C30.6253 26.9496 30.6253 26.1329 30.6253 24.4994L30.6253 13.416C30.6253 11.7825 30.6253 10.9658 30.3074 10.3419C30.0278 9.79307 29.5807 9.3472 29.0319 9.06757C28.408 8.74967 27.5918 8.74967 25.9583 8.74967H17.5M4.375 8.74967H17.5M4.375 8.74967C4.375 7.13884 5.68084 5.83301 7.29167 5.83301H12.6503C13.3637 5.83301 13.7213 5.83301 14.0569 5.9136C14.3545 5.98504 14.6385 6.10319 14.8995 6.2631C15.1937 6.44342 15.4464 6.69607 15.9505 7.2002L17.5 8.74967" stroke="#1D1F22" stroke-width="2" stroke-linecap="round" stroke-linejoin="round" />
</svg>