<svg width="35" height="35" viewBox="0 0 35 35" fill="none" xmlns="http://www.w3.org/2000/svg">
  <path d="M29.1666 24.7917V16.701C29.1666 15.9217 29.166 15.5319 29.0712 15.1693C28.9873 14.848 28.8494 14.5439 28.6629 14.2691C28.4524 13.959 28.1597 13.7019 27.5733 13.1887L20.5733 7.06373C19.4845 6.11102 18.9401 5.63491 18.3274 5.45372C17.7876 5.29407 17.2121 5.29407 16.6723 5.45372C16.06 5.63477 15.5164 6.11043 14.4293 7.0617L7.42694 13.1887C6.8405 13.7019 6.54796 13.959 6.33746 14.2691C6.15093 14.5439 6.01203 14.848 5.92806 15.1693C5.83331 15.5319 5.83331 15.9217 5.83331 16.701V24.7917C5.83331 26.1507 5.83331 26.83 6.05533 27.366C6.35136 28.0806 6.91878 28.6491 7.63344 28.9451C8.16944 29.1672 8.84894 29.1672 10.2079 29.1672C11.5669 29.1672 12.2472 29.1672 12.7832 28.9451C13.4978 28.6491 14.0651 28.0808 14.3611 27.3661C14.5832 26.8301 14.5833 26.1506 14.5833 24.7916V23.3333C14.5833 21.7224 15.8891 20.4166 17.5 20.4166C19.1108 20.4166 20.4166 21.7224 20.4166 23.3333V24.7916C20.4166 26.1506 20.4166 26.8301 20.6387 27.3661C20.9347 28.0808 21.5021 28.6491 22.2168 28.9451C22.7528 29.1672 23.4323 29.1672 24.7913 29.1672C26.1503 29.1672 26.8305 29.1672 27.3665 28.9451C28.0812 28.6491 28.6485 28.0806 28.9445 27.366C29.1665 26.83 29.1666 26.1507 29.1666 24.7917Z" stroke="#1D1F22" stroke-width="2" stroke-linecap="round" stroke-linejoin="round" />
</svg>