<svg width="35" height="35" viewBox="0 0 35 35" fill="none" xmlns="http://www.w3.org/2000/svg">
<rect width="17.5" height="17.5" transform="matrix(1 0 0 -1 0 17.5)" fill="#436C5F"/>
<rect x="17.5" width="17.5" height="17.5" fill="#1D1F22"/>
<rect width="17.5" height="17.5" transform="matrix(1 0 0 -1 0 35)" fill="#436C5F"/>
<rect width="17.5" height="8.75" transform="matrix(1 0 0 -1 0 35)" fill="#7CC0AB"/>
<path d="M8.75 17.5C3.91751 17.5 0 21.4175 0 26.25H17.5C17.5 21.4175 13.5825 17.5 8.75 17.5Z" fill="#7CC0AB"/>
<rect x="17.5005" y="17.5" width="17.5" height="17.5" fill="#7CC0AB"/>
<rect x="17.5005" y="17.5" width="17.5" height="8.75" fill="#1D1F22"/>
<path d="M26.25 35C31.0825 35 35 31.0825 35 26.25H17.5C17.5 31.0825 21.4175 35 26.25 35Z" fill="#1D1F22"/>
</svg>
