<svg width="11" height="14" viewBox="0 0 11 14" fill="none" xmlns="http://www.w3.org/2000/svg">
  <path d="M8.09858 2.81348H6.75259C6.3809 2.81348 6.07959 3.04783 6.07959 3.33692V10.6651C6.07959 10.9542 6.3809 11.1885 6.75259 11.1885H8.09858C8.47026 11.1885 8.77157 10.9542 8.77157 10.6651V3.33692C8.77157 3.04783 8.47026 2.81348 8.09858 2.81348Z" stroke="black" stroke-width="0.62813" stroke-linecap="round" stroke-linejoin="round" />
  <path d="M3.61176 2.81348H2.26577C1.89408 2.81348 1.59277 3.04783 1.59277 3.33692V10.6651C1.59277 10.9542 1.89408 11.1885 2.26577 11.1885H3.61176C3.98345 11.1885 4.28476 10.9542 4.28476 10.6651V3.33692C4.28476 3.04783 3.98345 2.81348 3.61176 2.81348Z" stroke="black" stroke-width="0.62813" stroke-linecap="round" stroke-linejoin="round" />
</svg>