<svg width="24" height="25" viewBox="0 0 24 25" fill="none" xmlns="http://www.w3.org/2000/svg">
  <path d="M17 4.5H15C14.4477 4.5 14 4.94772 14 5.5V19.5C14 20.0523 14.4477 20.5 15 20.5H17C17.5523 20.5 18 20.0523 18 19.5V5.5C18 4.94772 17.5523 4.5 17 4.5Z" stroke="black" stroke-width="2" stroke-linecap="round" stroke-linejoin="round" />
  <path d="M9 4.5H7C6.44772 4.5 6 4.94772 6 5.5V19.5C6 20.0523 6.44772 20.5 7 20.5H9C9.55228 20.5 10 20.0523 10 19.5V5.5C10 4.94772 9.55228 4.5 9 4.5Z" stroke="black" stroke-width="2" stroke-linecap="round" stroke-linejoin="round" />
</svg>