<svg width="14" height="14" viewBox="0 0 14 14" fill="none" xmlns="http://www.w3.org/2000/svg">
  <path d="M10.9678 6.02401C11.5352 6.23555 12.04 6.58675 12.4357 7.04514C12.8314 7.50352 13.1051 8.05429 13.2315 8.6465C13.358 9.23871 13.3331 9.85325 13.1591 10.4333C12.9851 11.0133 12.6677 11.5401 12.2362 11.965C11.8048 12.3898 11.2731 12.699 10.6905 12.8639C10.1079 13.0288 9.4931 13.0441 8.90299 12.9084C8.31289 12.7728 7.76651 12.4905 7.31441 12.0876C6.8623 11.6848 6.51905 11.1745 6.31641 10.6038M4.31181 3.40096H4.91199V5.80192M10.1396 8.13085L10.5597 8.55702L8.86717 10.2497M8.51307 4.60144C8.51307 6.59046 6.90081 8.20288 4.91199 8.20288C2.92317 8.20288 1.31091 6.59046 1.31091 4.60144C1.31091 2.61242 2.92317 1 4.91199 1C6.90081 1 8.51307 2.61242 8.51307 4.60144Z" stroke="black" stroke-width="1.03889" stroke-linecap="round" stroke-linejoin="round" />
</svg>