<svg width="15" height="16" viewBox="0 0 15 16" fill="none" xmlns="http://www.w3.org/2000/svg">
  <path d="M5.69623 2.08899C5.47687 1.51503 4.94573 1.13867 4.35509 1.13867H2.36842C1.61266 1.13867 1 1.77974 1 2.57072C1 9.29409 6.20779 14.7446 12.6317 14.7446C13.3875 14.7446 14 14.1033 14 13.3124L14.0003 11.2327C14.0003 10.6146 13.6408 10.0588 13.0924 9.82919L11.1883 9.03234C10.6957 8.82611 10.1349 8.91893 9.7273 9.27441L9.23588 9.70337C8.66196 10.2039 7.81752 10.1641 7.28926 9.61123L5.9055 8.16165C5.37724 7.60877 5.3382 6.72568 5.81646 6.12501L6.22624 5.61072C6.56589 5.18414 6.65536 4.59697 6.45832 4.0814L5.69623 2.08899Z" stroke="#E7E4DD" stroke-width="1.44445" stroke-linecap="round" stroke-linejoin="round" />
</svg>