<svg width="22" height="20" viewBox="0 0 22 20" fill="none" xmlns="http://www.w3.org/2000/svg">
  <path d="M20.5818 5.94424C20.3513 5.17855 19.6746 4.57683 18.8136 4.37186C17.2545 4 11 4 11 4C11 4 4.74547 4 3.18636 4.37186C2.32532 4.57683 1.64867 5.17855 1.41818 5.94424C1 7.33067 1 10.2251 1 10.2251C1 10.2251 1 13.1195 1.41818 14.5059C1.64867 15.2716 2.32532 15.8733 3.18636 16.0783C4.74547 16.4501 11 16.4501 11 16.4501C11 16.4501 17.2545 16.4501 18.8136 16.0783C19.6746 15.8733 20.3513 15.2716 20.5818 14.5059C21 13.1195 21 10.2251 21 10.2251C21 10.2251 20.9983 7.33067 20.5818 5.94424Z" fill="#E7E4DD" />
  <path d="M8.99817 12.8462L14.1941 10.1926L8.99817 7.53906V12.8462Z" fill="#1D1F22" />
</svg>